<?xml version="1.0" encoding="UTF-8" standalone="no"?>
<!-- Created with Inkscape (http://www.inkscape.org/) -->

<svg
   xmlns:dc="http://purl.org/dc/elements/1.1/"
   xmlns:cc="http://creativecommons.org/ns#"
   xmlns:rdf="http://www.w3.org/1999/02/22-rdf-syntax-ns#"
   xmlns:svg="http://www.w3.org/2000/svg"
   xmlns="http://www.w3.org/2000/svg"
   xmlns:sodipodi="http://sodipodi.sourceforge.net/DTD/sodipodi-0.dtd"
   xmlns:inkscape="http://www.inkscape.org/namespaces/inkscape"
   width="1417.3228"
   height="141.73228"
   id="svg3030"
   version="1.1"
   inkscape:version="0.48.3.1 r9886"
   sodipodi:docname="New document 2">
  <defs
     id="defs3032">
    <clipPath
       clipPathUnits="userSpaceOnUse"
       id="clipPath3034">
      <path
         inkscape:connector-curvature="0"
         d="m 0,841.89 595.28,0 L 595.28,0 0,0 0,841.89 z"
         id="path3036" />
    </clipPath>
  </defs>
  <sodipodi:namedview
     id="base"
     pagecolor="#ffffff"
     bordercolor="#666666"
     borderopacity="1.0"
     inkscape:pageopacity="0.0"
     inkscape:pageshadow="2"
     inkscape:zoom="0.35"
     inkscape:cx="765.08512"
     inkscape:cy="520"
     inkscape:document-units="px"
     inkscape:current-layer="layer1"
     showgrid="false"
     width="2296.06px"
     units="cm"
     inkscape:window-width="863"
     inkscape:window-height="657"
     inkscape:window-x="0"
     inkscape:window-y="0"
     inkscape:window-maximized="0" />
  <metadata
     id="metadata3035">
    <rdf:RDF>
      <cc:Work
         rdf:about="">
        <dc:format>image/svg+xml</dc:format>
        <dc:type
           rdf:resource="http://purl.org/dc/dcmitype/StillImage" />
        <dc:title></dc:title>
      </cc:Work>
    </rdf:RDF>
  </metadata>
  <g
     inkscape:label="Layer 1"
     inkscape:groupmode="layer"
     id="layer1"
     transform="translate(0,-910.62727)">
    <g
       transform="matrix(3.083297,0,0,-3.083297,-228.80582,2485.8455)"
       id="g3030">
      <g
         id="g3032"
         clip-path="url(#clipPath3034)">
        <g
           id="g3038"
           transform="translate(102.5151,487.6909)">
          <path
             inkscape:connector-curvature="0"
             d="m 0,0 14.131,-14.918 c 1.015,-1.02 1.355,-2.827 0.222,-3.847 -1.131,-1.126 -3.277,-0.793 -4.405,0.449 l -15.71,16.62 -7.573,0 0,-14.923 c 0,-1.575 -1.247,-2.822 -2.827,-2.822 -1.58,0 -2.824,1.247 -2.824,2.822 l 0,33.23 c 0,1.583 1.244,2.83 2.824,2.83 1.58,0 2.827,-1.247 2.827,-2.83 l 0,-12.883 9.491,0 12.661,14.693 c 1.131,1.128 3.274,1.58 4.405,0.452 1.131,-1.017 0.793,-2.827 -0.225,-3.842 L 0,0 z"
             style="fill:#000;fill-opacity:1;fill-rule:nonzero;stroke:none"
             id="path3040" />
        </g>
        <g
           id="g3042"
           transform="translate(102.5151,487.6909)">
          <path
             inkscape:connector-curvature="0"
             d="m 0,0 14.131,-14.918 c 1.015,-1.02 1.355,-2.827 0.222,-3.847 -1.131,-1.126 -3.277,-0.793 -4.405,0.449 l -15.71,16.62 -7.573,0 0,-14.923 c 0,-1.575 -1.247,-2.822 -2.827,-2.822 -1.58,0 -2.824,1.247 -2.824,2.822 l 0,33.23 c 0,1.583 1.244,2.83 2.824,2.83 1.58,0 2.827,-1.247 2.827,-2.83 l 0,-12.883 9.491,0 12.661,14.693 c 1.131,1.128 3.274,1.58 4.405,0.452 1.131,-1.017 0.793,-2.827 -0.225,-3.842 L 0,0 z"
             style="fill:none;stroke:#000;stroke-width:2.3829999;stroke-linecap:butt;stroke-linejoin:miter;stroke-miterlimit:4;stroke-opacity:1;stroke-dasharray:none"
             id="path3044" />
        </g>
        <g
           id="g3046"
           transform="translate(146.4785,473.5659)">
          <path
             inkscape:connector-curvature="0"
             d="m 0,0 c 7.8,0 14.128,6.325 14.128,14.125 0,7.8 -6.328,14.128 -14.128,14.128 -7.8,0 -14.125,-6.328 -14.125,-14.128 C -14.125,6.325 -7.8,0 0,0 m 0,33.904 c 10.963,0 19.777,-8.82 19.777,-19.779 0,-10.96 -8.814,-19.779 -19.777,-19.779 -10.962,0 -19.776,8.819 -19.776,19.779 0,10.959 8.814,19.779 19.776,19.779"
             style="fill:#000;fill-opacity:1;fill-rule:nonzero;stroke:none"
             id="path3048" />
        </g>
        <g
           id="g3050"
           transform="translate(146.4785,473.5659)">
          <path
             inkscape:connector-curvature="0"
             d="m 0,0 c 7.8,0 14.128,6.325 14.128,14.125 0,7.8 -6.328,14.128 -14.128,14.128 -7.8,0 -14.125,-6.328 -14.125,-14.128 C -14.125,6.325 -7.8,0 0,0 z m 0,33.904 c 10.963,0 19.777,-8.82 19.777,-19.779 0,-10.96 -8.814,-19.779 -19.777,-19.779 -10.962,0 -19.776,8.819 -19.776,19.779 0,10.959 8.814,19.779 19.776,19.779 z"
             style="fill:none;stroke:#000;stroke-width:2.3829999;stroke-linecap:butt;stroke-linejoin:miter;stroke-miterlimit:4;stroke-opacity:1;stroke-dasharray:none"
             id="path3052" />
        </g>
        <g
           id="g3054"
           transform="translate(189.9878,501.4805)">
          <path
             inkscape:connector-curvature="0"
             d="m 0,0 0,-27.582 9.607,0 c 7.8,0 14.13,5.993 14.13,13.792 0,7.8 -6.33,13.79 -14.13,13.79 L 0,0 z m 9.607,5.422 c 10.965,0 19.779,-8.252 19.779,-19.212 0,-10.96 -8.814,-19.213 -19.779,-19.213 l -12.432,0 c -1.582,0 -2.827,1.241 -2.827,2.827 l 0,32.771 c 0,1.585 1.245,2.827 2.827,2.827 l 12.432,0 z"
             style="fill:#000;fill-opacity:1;fill-rule:nonzero;stroke:none"
             id="path3056" />
        </g>
        <g
           id="g3058"
           transform="translate(189.9878,501.4805)">
          <path
             inkscape:connector-curvature="0"
             d="m 0,0 0,-27.582 9.607,0 c 7.8,0 14.13,5.993 14.13,13.792 0,7.8 -6.33,13.79 -14.13,13.79 L 0,0 z m 9.607,5.422 c 10.965,0 19.779,-8.252 19.779,-19.212 0,-10.96 -8.814,-19.213 -19.779,-19.213 l -12.432,0 c -1.582,0 -2.827,1.241 -2.827,2.827 l 0,32.771 c 0,1.585 1.245,2.827 2.827,2.827 l 12.432,0 z"
             style="fill:none;stroke:#000;stroke-width:2.3829999;stroke-linecap:butt;stroke-linejoin:miter;stroke-miterlimit:4;stroke-opacity:1;stroke-dasharray:none"
             id="path3060" />
        </g>
        <g
           id="g3062"
           transform="translate(267.4038,473.8989)">
          <path
             inkscape:connector-curvature="0"
             d="M 0,0 C 1.585,0 2.827,-1.126 2.827,-2.706 2.827,-4.291 1.585,-5.422 0,-5.422 l -27.125,0 c -1.58,0 -2.824,1.241 -2.824,2.827 l 0,32.771 c 0,1.586 1.244,2.827 2.824,2.827 l 27.125,0 c 1.585,0 2.827,-1.133 2.827,-2.713 0,-1.575 -1.242,-2.708 -2.827,-2.708 l -24.298,0 0,-10.627 18.652,0 c 1.58,0 2.821,-1.128 2.821,-2.711 0,-1.586 -1.241,-2.714 -2.821,-2.714 l -18.652,0 0,-11.53 L 0,0 z"
             style="fill:#000;fill-opacity:1;fill-rule:nonzero;stroke:none"
             id="path3064" />
        </g>
        <g
           id="g3066"
           transform="translate(267.4038,473.8989)">
          <path
             inkscape:connector-curvature="0"
             d="M 0,0 C 1.585,0 2.827,-1.126 2.827,-2.706 2.827,-4.291 1.585,-5.422 0,-5.422 l -27.125,0 c -1.58,0 -2.824,1.241 -2.824,2.827 l 0,32.771 c 0,1.586 1.244,2.827 2.824,2.827 l 27.125,0 c 1.585,0 2.827,-1.133 2.827,-2.713 0,-1.575 -1.242,-2.708 -2.827,-2.708 l -24.298,0 0,-10.627 18.652,0 c 1.58,0 2.821,-1.128 2.821,-2.711 0,-1.586 -1.241,-2.714 -2.821,-2.714 l -18.652,0 0,-11.53 L 0,0 z"
             style="fill:none;stroke:#000;stroke-width:2.3829999;stroke-linecap:butt;stroke-linejoin:miter;stroke-miterlimit:4;stroke-opacity:1;stroke-dasharray:none"
             id="path3068" />
        </g>
        <g
           id="g3070"
           transform="translate(310.6904,489.0493)">
          <path
             inkscape:connector-curvature="0"
             d="m 0,0 10.847,-11.192 0,26.445 c 0,1.582 1.253,2.83 2.832,2.83 1.58,0 2.822,-1.248 2.822,-2.83 l 0,-33.231 c 0,-1.575 -1.242,-2.822 -2.822,-2.822 -1.131,0 -1.697,0.338 -2.832,1.469 L -2.94,-5.316 -16.728,-19.331 c -1.127,-1.131 -1.696,-1.469 -2.824,-1.469 -1.585,0 -2.824,1.247 -2.824,2.822 l 0,33.231 c 0,1.582 1.239,2.83 2.824,2.83 1.58,0 2.824,-1.248 2.824,-2.83 l 0,-26.445 L -5.648,0 c 1.127,1.128 1.696,1.466 2.824,1.466 C -1.696,1.466 -1.131,1.128 0,0"
             style="fill:#000;fill-opacity:1;fill-rule:nonzero;stroke:none"
             id="path3072" />
        </g>
        <g
           id="g3074"
           transform="translate(310.6904,489.0493)">
          <path
             inkscape:connector-curvature="0"
             d="m 0,0 10.847,-11.192 0,26.445 c 0,1.582 1.253,2.83 2.832,2.83 1.58,0 2.822,-1.248 2.822,-2.83 l 0,-33.231 c 0,-1.575 -1.242,-2.822 -2.822,-2.822 -1.131,0 -1.697,0.338 -2.832,1.469 L -2.94,-5.316 -16.728,-19.331 c -1.127,-1.131 -1.696,-1.469 -2.824,-1.469 -1.585,0 -2.824,1.247 -2.824,2.822 l 0,33.231 c 0,1.582 1.239,2.83 2.824,2.83 1.58,0 2.824,-1.248 2.824,-2.83 l 0,-26.445 L -5.648,0 c 1.127,1.128 1.696,1.466 2.824,1.466 C -1.696,1.466 -1.131,1.128 0,0 z"
             style="fill:none;stroke:#000;stroke-width:2.3829999;stroke-linecap:butt;stroke-linejoin:miter;stroke-miterlimit:4;stroke-opacity:1;stroke-dasharray:none"
             id="path3076" />
        </g>
        <g
           id="g3078"
           transform="translate(365.0537,473.5659)">
          <path
             inkscape:connector-curvature="0"
             d="m 0,0 c 7.795,0 14.125,6.325 14.125,14.125 0,7.8 -6.33,14.128 -14.125,14.128 -7.8,0 -14.125,-6.328 -14.125,-14.128 C -14.125,6.325 -7.8,0 0,0 m 0,33.904 c 10.96,0 19.779,-8.82 19.779,-19.779 C 19.779,3.165 10.96,-5.654 0,-5.654 c -10.965,0 -19.779,8.819 -19.779,19.779 0,10.959 8.814,19.779 19.779,19.779"
             style="fill:#000;fill-opacity:1;fill-rule:nonzero;stroke:none"
             id="path3080" />
        </g>
        <g
           id="g3082"
           transform="translate(365.0537,473.5659)">
          <path
             inkscape:connector-curvature="0"
             d="m 0,0 c 7.795,0 14.125,6.325 14.125,14.125 0,7.8 -6.33,14.128 -14.125,14.128 -7.8,0 -14.125,-6.328 -14.125,-14.128 C -14.125,6.325 -7.8,0 0,0 z m 0,33.904 c 10.96,0 19.779,-8.82 19.779,-19.779 C 19.779,3.165 10.96,-5.654 0,-5.654 c -10.965,0 -19.779,8.819 -19.779,19.779 0,10.959 8.814,19.779 19.779,19.779 z"
             style="fill:none;stroke:#000;stroke-width:2.3829999;stroke-linecap:butt;stroke-linejoin:miter;stroke-miterlimit:4;stroke-opacity:1;stroke-dasharray:none"
             id="path3084" />
        </g>
        <g
           id="g3086"
           transform="translate(408.5596,501.4805)">
          <path
             inkscape:connector-curvature="0"
             d="m 0,0 0,-12.662 14.808,0 c 3.952,0 6.669,2.714 6.669,6.334 C 21.477,-2.713 18.76,0 14.808,0 L 0,0 z m 14.808,5.422 c 6.779,0 12.323,-4.97 12.323,-11.75 0,-5.995 -4.302,-10.513 -9.951,-11.533 l 10.283,-10.847 c 1.02,-1.019 1.358,-2.827 0.227,-3.846 -1.125,-1.126 -3.276,-0.793 -4.407,0.448 L 9.945,-18.085 0,-18.085 0,-30.52 c 0,-1.586 -1.241,-2.711 -2.827,-2.711 -1.58,0 -2.821,1.247 -2.821,2.822 l 0,33.004 c 0,1.585 1.241,2.827 2.821,2.827 l 17.635,0 z"
             style="fill:#000;fill-opacity:1;fill-rule:nonzero;stroke:none"
             id="path3088" />
        </g>
        <g
           id="g3090"
           transform="translate(408.5596,501.4805)">
          <path
             inkscape:connector-curvature="0"
             d="m 0,0 0,-12.662 14.808,0 c 3.952,0 6.669,2.714 6.669,6.334 C 21.477,-2.713 18.76,0 14.808,0 L 0,0 z m 14.808,5.422 c 6.779,0 12.323,-4.97 12.323,-11.75 0,-5.995 -4.302,-10.513 -9.951,-11.533 l 10.283,-10.847 c 1.02,-1.019 1.358,-2.827 0.227,-3.846 -1.125,-1.126 -3.276,-0.793 -4.407,0.448 L 9.945,-18.085 0,-18.085 0,-30.52 c 0,-1.586 -1.241,-2.711 -2.827,-2.711 -1.58,0 -2.821,1.247 -2.821,2.822 l 0,33.004 c 0,1.585 1.241,2.827 2.821,2.827 l 17.635,0 z"
             style="fill:none;stroke:#000;stroke-width:2.3829999;stroke-linecap:butt;stroke-linejoin:miter;stroke-miterlimit:4;stroke-opacity:1;stroke-dasharray:none"
             id="path3092" />
        </g>
        <g
           id="g3094"
           transform="translate(474.1133,487.6909)">
          <path
             inkscape:connector-curvature="0"
             d="m 0,0 14.125,-14.918 c 1.02,-1.02 1.357,-2.827 0.227,-3.847 -1.131,-1.126 -3.277,-0.793 -4.413,0.449 l -15.71,16.62 -7.567,0 0,-14.923 c 0,-1.575 -1.242,-2.822 -2.828,-2.822 -1.579,0 -2.821,1.247 -2.821,2.822 l 0,33.23 c 0,1.583 1.242,2.83 2.821,2.83 1.586,0 2.828,-1.247 2.828,-2.83 l 0,-12.883 9.496,0 12.655,14.693 c 1.126,1.128 3.277,1.58 4.408,0.452 1.131,-1.017 0.793,-2.827 -0.227,-3.842 L 0,0 z"
             style="fill:#000;fill-opacity:1;fill-rule:nonzero;stroke:none"
             id="path3096" />
        </g>
        <g
           id="g3098"
           transform="translate(474.1133,487.6909)">
          <path
             inkscape:connector-curvature="0"
             d="m 0,0 14.125,-14.918 c 1.02,-1.02 1.357,-2.827 0.227,-3.847 -1.131,-1.126 -3.277,-0.793 -4.413,0.449 l -15.71,16.62 -7.567,0 0,-14.923 c 0,-1.575 -1.242,-2.822 -2.828,-2.822 -1.579,0 -2.821,1.247 -2.821,2.822 l 0,33.23 c 0,1.583 1.242,2.83 2.821,2.83 1.586,0 2.828,-1.247 2.828,-2.83 l 0,-12.883 9.496,0 12.655,14.693 c 1.126,1.128 3.277,1.58 4.408,0.452 1.131,-1.017 0.793,-2.827 -0.227,-3.842 L 0,0 z"
             style="fill:none;stroke:#000;stroke-width:2.3829999;stroke-linecap:butt;stroke-linejoin:miter;stroke-miterlimit:4;stroke-opacity:1;stroke-dasharray:none"
             id="path3100" />
        </g>
        <g
           id="g3102"
           transform="translate(508.4668,491.6436)">
          <path
             inkscape:connector-curvature="0"
             d="m 0,0 c 0,14.125 8.703,15.827 15.256,15.827 1.585,0 2.827,-1.244 2.827,-2.83 0,-1.58 -1.242,-2.822 -2.827,-2.822 C 9.944,10.175 5.654,9.042 5.654,0 l 0,-7.911 c 0,-14.125 -8.704,-15.821 -15.256,-15.821 -1.586,0 -2.827,1.241 -2.827,2.827 0,1.585 1.241,2.827 2.827,2.827 5.311,0 9.602,1.125 9.602,10.167 L 0,0 z"
             style="fill:#000;fill-opacity:1;fill-rule:nonzero;stroke:none"
             id="path3104" />
        </g>
        <g
           id="g3106"
           transform="translate(508.4668,491.6436)">
          <path
             inkscape:connector-curvature="0"
             d="m 0,0 c 0,14.125 8.703,15.827 15.256,15.827 1.585,0 2.827,-1.244 2.827,-2.83 0,-1.58 -1.242,-2.822 -2.827,-2.822 C 9.944,10.175 5.654,9.042 5.654,0 l 0,-7.911 c 0,-14.125 -8.704,-15.821 -15.256,-15.821 -1.586,0 -2.827,1.241 -2.827,2.827 0,1.585 1.241,2.827 2.827,2.827 5.311,0 9.602,1.125 9.602,10.167 L 0,0 z"
             style="fill:none;stroke:#000;stroke-width:2.3829999;stroke-linecap:butt;stroke-linejoin:miter;stroke-miterlimit:4;stroke-opacity:1;stroke-dasharray:none"
             id="path3108" />
        </g>
      </g>
    </g>
  </g>
</svg>
